<?xml version="1.0" encoding="UTF-8"?>
<svg width="88px" height="27px" viewBox="0 0 88 27" version="1.1" xmlns="http://www.w3.org/2000/svg" xmlns:xlink="http://www.w3.org/1999/xlink">
    <!-- Generator: Sketch 63.1 (92452) - https://sketch.com -->
    <title>logo</title>
    <desc>Created with Sketch.</desc>
    <defs>
        <polygon id="path-1" points="0 26.6574 87.4295172 26.6574 87.4295172 0 0 0"></polygon>
    </defs>
    <g id="定稿" stroke="none" stroke-width="1" fill="none" fill-rule="evenodd">
        <g id="关于页面/首页相关" transform="translate(-40.000000, -31.000000)">
            <g id="bg" transform="translate(0.000000, -1.000000)">
                <g id="导航" transform="translate(40.000000, 31.000000)">
                    <g id="logo">
                        <path d="M0,1 L10.8638902,28 L26,9.7840551 L20.6412683,4.75209327 L0,1 Z M3.85139612,3.14769965 L18.7297208,5.85268299 L12.9544723,10.6056991 L3.85139612,3.14769965 Z M2.81964032,4.15226884 L12.3066257,11.9250698 L10.8232844,24.0455343 L2.81964032,4.15226884 Z M20.3090393,6.40510489 L23.4664458,9.37019447 L14.8309513,10.9150311 L20.3090393,6.40510489 Z M13.6798391,12.5680427 L23.2424988,10.8579049 L12.274018,24.0582966 L13.6798391,12.5680427 Z" id="Fill-1" fill="#FEFEFE"></path>
                        <g id="编组">
                            <path d="M55.6394262,13.90392 C56.3373572,13.24512 56.6917848,12.33972 56.6917848,11.21232 C56.6917848,7.12812 53.012171,7.12992 52.9745434,7.12872 L46.4989572,7.12812 L45.2208331,7.12812 L45.2208331,19.95912 L46.4989572,19.95912 L46.4989572,8.40732 L52.9375228,8.40732 C53.1323366,8.41692 55.4136607,8.58912 55.4136607,11.21232 C55.4136607,11.98092 55.2024607,12.55512 54.7673159,12.96852 C53.9382952,13.75632 52.554571,13.69392 52.5436469,13.69272 L47.4578538,13.69152 L47.4578538,19.95912 L48.7359779,19.95912 L48.7359779,14.97132 L52.4914538,14.97132 L52.4975228,14.97132 L55.5040883,20.00292 L56.9934124,20.00292 L53.8933848,14.81472 C54.4638676,14.67192 55.1083917,14.40492 55.6394262,13.90392" id="Fill-2" fill="#FEFEFE"></path>
                            <mask id="mask-2" fill="white">
                                <use xlink:href="#path-1"></use>
                            </mask>
                            <g id="Clip-5"></g>
                            <polygon id="Fill-4" fill="#FEFEFE" mask="url(#mask-2)" points="34.8959448 19.9596 36.174069 19.9596 36.174069 11.1318 34.8959448 11.1318"></polygon>
                            <polygon id="Fill-6" fill="#FEFEFE" mask="url(#mask-2)" points="30.858869 8.3916 42.3085793 8.3916 42.3085793 7.128 30.858869 7.128"></polygon>
                            <polygon id="Fill-7" fill="#FEFEFE" mask="url(#mask-2)" points="37.1323586 19.9596 38.4098759 19.9596 38.4098759 11.1318 37.1323586 11.1318"></polygon>
                            <polygon id="Fill-8" fill="#FEFEFE" mask="url(#mask-2)" points="78.1373241 19.9032 79.4306207 19.9032 79.4306207 15.2448 78.1373241 15.2448"></polygon>
                            <polygon id="Fill-9" fill="#FEFEFE" mask="url(#mask-2)" points="86.1365848 7.21482 86.1365848 17.51382 75.816309 5.86782 75.816309 19.87782 77.1096055 19.87782 77.1096055 9.67122 87.4298814 21.31722 87.4298814 7.21482"></polygon>
                            <path d="M66.5665379,18.71124 C63.6595034,18.71124 61.2944276,16.37304 61.2944276,13.49904 C61.2944276,10.62504 63.6595034,8.28684 66.5665379,8.28684 C69.4735724,8.28684 71.8386483,10.62504 71.8386483,13.49904 C71.8386483,16.37304 69.4735724,18.71124 66.5665379,18.71124 M66.5665379,7.00884 C62.9464,7.00884 60.0017379,9.92064 60.0017379,13.49904 C60.0017379,17.07804 62.9464,19.98924 66.5665379,19.98924 C70.1866759,19.98924 73.1313379,17.07804 73.1313379,13.49904 C73.1313379,9.92064 70.1866759,7.00884 66.5665379,7.00884" id="Fill-10" fill="#FEFEFE" mask="url(#mask-2)"></path>
                            <path d="M66.5647172,12.47538 C66.0743448,12.47538 65.6768276,12.86838 65.6768276,13.35258 C65.6768276,13.83798 66.0743448,14.23038 66.5647172,14.23038 C67.0550897,14.23038 67.4526069,13.83798 67.4526069,13.35258 C67.4526069,12.86838 67.0550897,12.47538 66.5647172,12.47538" id="Fill-11" fill="#FEFEFE" mask="url(#mask-2)"></path>
                        </g>
                    </g>
                </g>
            </g>
        </g>
    </g>
</svg>